PathFileType	4	(X/Y/Z)	C:/Users/opensim2020/Desktop/walking_exp_matlab/subject03_walking14_straight_01.trc	
DataRate	CameraRate	NumFrames	NumMarkers	Units	OrigDataRate	OrigDataStartFrame	OrigNumFrames	
100.00	100.00	5	47	mm	100.00	552	205	
Frame#	Time	LFHD			RFHD			LBHD			RBHD			C7			T10			CLAV			STRN			RBAK			LSHO			LUPA			LELB			LFRM			LWRA			LWRB			LFIN			RSHO			RUPA			RELB			RFRM			RWRA			RWRB			RFIN			LASI			RASI			LPSI			RPSI			LTHI			LKNE			LTIB			LANK			LHEE			LTOE			RTHI			RKNE			RTIB			RANK			RHEE			RTOE			*39			*40			*41			*42			*43			*44			*45			*46			
		X1	Y1	Z1	X2	Y2	Z2	X3	Y3	Z3	X4	Y4	Z4	X5	Y5	Z5	X6	Y6	Z6	X7	Y7	Z7	X8	Y8	Z8	X9	Y9	Z9	X10	Y10	Z10	X11	Y11	Z11	X12	Y12	Z12	X13	Y13	Z13	X14	Y14	Z14	X15	Y15	Z15	X16	Y16	Z16	X17	Y17	Z17	X18	Y18	Z18	X19	Y19	Z19	X20	Y20	Z20	X21	Y21	Z21	X22	Y22	Z22	X23	Y23	Z23	X24	Y24	Z24	X25	Y25	Z25	X26	Y26	Z26	X27	Y27	Z27	X28	Y28	Z28	X29	Y29	Z29	X30	Y30	Z30	X31	Y31	Z31	X32	Y32	Z32	X33	Y33	Z33	X34	Y34	Z34	X35	Y35	Z35	X36	Y36	Z36	X37	Y37	Z37	X38	Y38	Z38	X39	Y39	Z39	X40	Y40	Z40	X41	Y41	Z41	X42	Y42	Z42	X43	Y43	Z43	X44	Y44	Z44	X45	Y45	Z45	X46	Y46	Z46	X47	Y47	Z47	

77	0.760	1370.64880	-417.35718	1637.09375	1502.52820	-431.34143	1635.12207	1359.41333	-541.51239	1585.09253	1489.93872	-551.22064	1583.01294	1407.72876	-570.00922	1422.59253	1422.32361	-598.95947	1112.41052	1418.24829	-448.09680	1352.29565	1418.47437	-397.25854	1186.89844	1504.81909	-622.08667	1247.87036	1260.07141	-484.51358	1385.48328	1185.36243	-468.53815	1191.73682	1170.61511	-444.95609	1071.12756	1167.61438	-408.62564	945.57288	1191.65112	-387.67084	826.41113	1137.41113	-400.82028	835.67712	1140.03064	-377.27808	755.66681	1573.98450	-505.78552	1375.89514	1653.53040	-499.33871	1156.91028	1668.77490	-477.53110	1046.32910	1673.00610	-447.72842	912.36090	1639.64087	-406.77048	821.01630	1682.29041	-439.32776	812.07861	1671.72607	-408.27618	743.66711	1308.26099	-439.19440	951.33508	1544.21362	-439.42911	946.57080	1359.55603	-601.38934	975.49066	1507.98254	-597.77399	976.61151	1263.50793	-491.44897	649.14484	1304.91357	-480.17499	474.32632	1296.78467	-536.63593	282.43021	1334.63745	-560.50989	71.61499	1369.06177	-604.25543	37.15701	1363.51257	-411.06622	36.96340	1591.52502	-443.81226	648.69409	1570.61682	-382.09811	479.63220	1561.93933	-504.81854	334.32242	1509.09045	-643.37750	173.20280	1452.85889	-694.83582	171.40039	1498.75537	-555.44800	62.97729	1417.76245	-510.50989	1692.94885																					 
78	0.770	1371.11377	-405.20508	1637.04504	1503.44788	-420.31345	1634.93005	1359.42212	-529.57422	1585.45679	1489.92053	-539.62366	1583.06982	1407.54187	-558.15607	1422.73425	1421.16724	-587.44708	1112.56262	1418.47107	-436.39090	1352.40430	1418.60046	-385.62936	1186.93372	1504.01746	-610.65289	1247.93457	1260.35498	-472.30579	1385.74622	1185.11975	-453.81314	1192.66296	1170.30188	-427.51181	1072.69897	1168.12158	-386.89587	948.35553	1193.10400	-361.78369	830.22076	1138.95117	-375.47211	838.55444	1141.94629	-348.63889	759.79468	1573.92798	-494.79187	1375.79199	1653.19836	-490.74295	1156.64380	1668.54187	-470.10052	1045.79321	1672.69409	-442.45135	911.33606	1639.56445	-402.42905	819.39941	1681.95081	-435.56445	810.97418	1671.62683	-405.53479	741.77472	1307.29126	-427.97983	950.93951	1543.35791	-427.98605	947.11865	1358.91699	-589.92426	975.54108	1507.20251	-586.35870	976.95935	1263.62939	-484.42374	648.64990	1305.04395	-476.92297	473.93613	1297.05444	-534.99274	282.56564	1334.56641	-560.82471	72.10512	1369.20972	-604.16180	37.19909	1363.59253	-410.97086	36.79597	1590.76331	-427.39545	650.10321	1569.40613	-363.23575	482.37881	1560.56396	-479.41306	331.21661	1507.07324	-609.80389	163.27429	1450.88965	-661.24304	158.51337	1496.41199	-515.18060	58.97681	1418.05481	-498.52472	1692.97668																					 
79	0.780	1371.70569	-393.10352	1636.72388	1503.86670	-408.63083	1634.47705	1359.49023	-517.48785	1585.38623	1489.92017	-527.97894	1582.85669	1407.43237	-546.32623	1422.55591	1419.98584	-575.86145	1112.41394	1418.76868	-424.67920	1352.11560	1418.57642	-374.13116	1186.58411	1503.16614	-599.26056	1247.68506	1260.63806	-459.87933	1385.80640	1184.95471	-439.18311	1193.41772	1170.16614	-409.83688	1074.02917	1168.70618	-365.40701	951.20264	1194.21851	-336.35419	833.93671	1140.58093	-350.26163	841.54724	1144.28552	-320.20810	764.08032	1573.95630	-483.69098	1375.37830	1652.86072	-482.02155	1156.09302	1668.17847	-462.92056	1044.91016	1672.42175	-437.03979	910.10657	1639.67480	-397.92828	817.56830	1681.82910	-431.75439	809.62952	1671.73962	-402.75992	740.18280	1306.41980	-416.74161	950.28833	1542.55371	-416.45032	947.28473	1358.38879	-578.50726	975.39667	1506.47168	-575.02136	976.93091	1263.64294	-477.71158	648.26666	1305.07019	-473.88065	473.13190	1297.31067	-533.47565	282.61923	1334.92932	-560.32428	72.11576	1369.24670	-603.86041	37.41784	1363.31519	-410.64459	36.98926	1590.82910	-412.97021	651.77637	1568.38696	-345.01178	484.83835	1559.36230	-454.08588	327.76361	1505.36536	-575.35553	153.03748	1449.01184	-626.37915	145.29858	1494.78967	-474.56561	55.07610	1418.39099	-486.47354	1692.95349																					 
80	0.790	1372.27136	-380.86646	1636.32361	1504.36450	-396.98492	1633.72742	1359.59631	-505.34943	1584.99841	1490.03125	-516.23328	1582.29846	1407.34412	-534.34619	1422.08789	1418.93518	-564.39972	1112.06714	1419.04761	-412.88397	1351.53992	1418.73108	-362.40161	1186.02185	1502.29114	-587.76691	1247.13855	1260.98438	-447.37674	1385.63708	1184.84583	-424.34387	1193.91772	1169.81726	-392.83438	1075.33374	1169.33008	-344.03696	954.07526	1195.98950	-310.60178	838.29120	1142.38245	-325.12009	844.67621	1146.92554	-292.08752	768.40845	1574.08838	-472.41678	1374.64941	1652.50476	-473.28787	1155.17615	1668.00623	-455.42981	1043.79504	1672.33228	-431.51685	908.61798	1639.91760	-393.47070	815.51099	1681.57300	-427.86548	807.96600	1671.74548	-399.77551	737.94312	1305.63562	-405.66934	949.39685	1541.80127	-404.89578	947.02356	1357.87012	-567.06842	974.86700	1505.76416	-563.61255	976.44714	1263.80115	-470.64209	647.61212	1305.03271	-470.21054	472.45276	1297.59473	-531.67432	282.74207	1335.23816	-560.37170	72.55966	1369.72949	-603.65619	37.84298	1363.34229	-410.50348	36.88321	1590.48218	-397.91687	652.89819	1567.35632	-327.40497	486.90448	1558.30310	-428.83023	324.07672	1504.00537	-540.07770	142.68153	1447.54395	-590.48395	132.04288	1493.92139	-433.40771	51.48026	1418.72791	-474.34445	1691.83875																					 
81	0.800	1372.83447	-368.74896	1635.51135	1504.86914	-385.19876	1632.81213	1359.76404	-493.23047	1584.34143	1490.13647	-504.49606	1581.51550	1407.49280	-522.51337	1421.48816	1417.87146	-552.67389	1111.27661	1419.44995	-400.93036	1350.76489	1418.76135	-350.72369	1185.09668	1501.33569	-576.10889	1246.28198	1261.31531	-434.90558	1385.12830	1184.80078	-409.30508	1194.30457	1169.54358	-375.70593	1076.38623	1170.01123	-322.89438	956.84558	1197.80469	-285.01630	842.76569	1144.32202	-300.18936	847.85974	1149.81628	-264.29556	772.93201	1574.24597	-461.07721	1373.54968	1652.31897	-464.09747	1154.00684	1667.87512	-447.93256	1042.46460	1672.32764	-425.83383	906.87708	1640.20605	-388.73819	813.24731	1681.48267	-423.67902	806.13953	1671.90112	-396.66766	735.72034	1305.01526	-394.10452	948.21942	1540.91125	-393.26453	946.51208	1357.40088	-555.58142	974.14026	1505.21167	-552.33197	975.65326	1264.01563	-463.37054	646.93591	1305.15271	-466.51398	471.74710	1297.88794	-529.60345	282.81342	1335.75928	-559.97913	72.81795	1370.16138	-603.63190	38.24574	1363.33459	-410.25418	36.78692	1590.30627	-383.20938	653.68878	1566.21704	-310.38266	488.56979	1557.46606	-403.90903	320.24905	1503.03040	-504.09286	132.48549	1446.19788	-553.17889	118.50239	1493.93616	-391.80069	48.57602	1419.11084	-462.34927	1691.49561																					 
